<svg xmlns="http://www.w3.org/2000/svg" viewBox="0 0 1315.62 1171.69"><defs><style>.a,.h{fill:#1f3d5c;}.a,.b,.d{stroke:#2fbde2;stroke-miterlimit:10;stroke-width:3px;}.b{fill:none;}.c{fill:#336b99;}.d{fill:#244a70;}.e{fill:#2fbde2;}.f{fill:#fff;}.g{fill:#f18b2c;}.i{fill:#45586b;}</style></defs><path class="a" d="M1294,440.55c14.84,10.43,23.13,21.41,19.13,34.87L1164.05,977c-4,13.47-17.93,24.49-31,24.49H347.59c-8.69,0-15.07-6.64-26.14-18.37"/><path class="a" d="M497.46,436.85h785.16c13,0,20.4,11,16.4,24.47L1150,962.93c-4,13.47-17.94,24.5-31,24.5H333.5c-13,0-20.4-11-16.39-24.5L466.5,461.32C470.51,447.86,484.44,436.85,497.46,436.85Z"/><path class="b" d="M509.24,462.79h746c10,0,15.6,8.42,12.54,18.72l-114,383.66c-3.06,10.31-13.72,18.74-23.68,18.74H383.83c-10,0-15.6-8.43-12.53-18.74L485.56,481.51C488.63,471.21,499.28,462.79,509.24,462.79Z"/><path class="a" d="M591.84,1149.82h401A10.18,10.18,0,0,1,1003,1160v0a10.18,10.18,0,0,1-10.18,10.18H581.66a0,0,0,0,1,0,0V1160A10.18,10.18,0,0,1,591.84,1149.82Z"/><polygon class="a" points="634.91 1008.08 676.42 1149.82 928.98 1149.82 884.73 1001.52 633.01 1001.52 634.91 1008.08"/><line class="b" x1="870.05" y1="1001.52" x2="913.51" y2="1149.82"/><circle class="c" cx="1183.74" cy="489.66" r="8.52"/><circle class="c" cx="1168.8" cy="542.12" r="8.52"/><circle class="c" cx="1151.77" cy="594.58" r="8.52"/><circle class="c" cx="1137.6" cy="647.04" r="8.52"/><circle class="c" cx="1123.27" cy="699.5" r="8.52"/><circle class="c" cx="1106.24" cy="751.96" r="8.52"/><circle class="c" cx="1091.65" cy="804.42" r="8.52"/><circle class="c" cx="1074.62" cy="856.88" r="8.52"/><circle class="c" cx="1234.84" cy="489.66" r="8.52"/><circle class="c" cx="1219.9" cy="542.12" r="8.52"/><circle class="c" cx="1202.87" cy="594.58" r="8.52"/><circle class="c" cx="1188.7" cy="647.04" r="8.52"/><circle class="c" cx="1174.37" cy="699.5" r="8.52"/><circle class="c" cx="1157.34" cy="751.96" r="8.52"/><circle class="c" cx="1142.75" cy="804.42" r="8.52"/><circle class="c" cx="1125.72" cy="856.88" r="8.52"/><circle class="c" cx="1132.23" cy="489.66" r="8.52"/><circle class="c" cx="1117.29" cy="542.12" r="8.52"/><circle class="c" cx="1100.26" cy="594.58" r="8.52"/><circle class="c" cx="1086.09" cy="647.04" r="8.52"/><circle class="c" cx="1071.76" cy="699.5" r="8.52"/><circle class="c" cx="1054.73" cy="751.96" r="8.52"/><circle class="c" cx="1040.14" cy="804.42" r="8.52"/><circle class="c" cx="1023.11" cy="856.88" r="8.52"/><circle class="c" cx="1080.59" cy="489.66" r="8.52"/><circle class="c" cx="1065.65" cy="542.12" r="8.52"/><circle class="c" cx="1048.61" cy="594.58" r="8.52"/><circle class="c" cx="1034.44" cy="647.04" r="8.52"/><circle class="c" cx="1020.11" cy="699.5" r="8.52"/><circle class="c" cx="1003.08" cy="751.96" r="8.52"/><circle class="c" cx="988.49" cy="804.42" r="8.52"/><circle class="c" cx="971.46" cy="856.88" r="8.52"/><circle class="c" cx="1028.66" cy="489.66" r="8.52"/><circle class="c" cx="1013.72" cy="542.12" r="8.52"/><circle class="c" cx="996.69" cy="594.58" r="8.52"/><circle class="c" cx="982.51" cy="647.04" r="8.52"/><circle class="c" cx="968.19" cy="699.5" r="8.52"/><circle class="c" cx="951.16" cy="751.96" r="8.52"/><circle class="c" cx="936.57" cy="804.42" r="8.52"/><circle class="c" cx="919.54" cy="856.88" r="8.52"/><circle class="c" cx="976.82" cy="489.66" r="8.52"/><circle class="c" cx="961.88" cy="542.12" r="8.52"/><circle class="c" cx="944.85" cy="594.58" r="8.52"/><circle class="c" cx="930.67" cy="647.04" r="8.52"/><circle class="c" cx="916.35" cy="699.5" r="8.52"/><circle class="c" cx="899.32" cy="751.96" r="8.52"/><circle class="c" cx="884.73" cy="804.42" r="8.52"/><circle class="c" cx="867.7" cy="856.88" r="8.52"/><circle class="c" cx="924.12" cy="489.66" r="8.52"/><circle class="c" cx="909.18" cy="542.12" r="8.52"/><circle class="c" cx="892.15" cy="594.58" r="8.52"/><circle class="c" cx="877.97" cy="647.04" r="8.52"/><circle class="c" cx="863.65" cy="699.5" r="8.52"/><circle class="c" cx="846.62" cy="751.96" r="8.52"/><circle class="c" cx="832.03" cy="804.42" r="8.52"/><circle class="c" cx="814.99" cy="856.88" r="8.52"/><circle class="c" cx="874.07" cy="489.66" r="8.52"/><circle class="c" cx="859.13" cy="542.12" r="8.52"/><circle class="c" cx="842.1" cy="594.58" r="8.52"/><circle class="c" cx="827.93" cy="647.04" r="8.52"/><circle class="c" cx="813.6" cy="699.5" r="8.52"/><circle class="c" cx="796.57" cy="751.96" r="8.52"/><circle class="c" cx="781.98" cy="804.42" r="8.52"/><circle class="c" cx="764.95" cy="856.88" r="8.52"/><circle class="c" cx="713.52" cy="856.88" r="8.52"/><circle class="c" cx="661.34" cy="856.88" r="8.52"/><circle class="c" cx="609.98" cy="856.88" r="8.52"/><circle class="c" cx="558.4" cy="856.88" r="8.52"/><circle class="c" cx="507.91" cy="856.88" r="8.52"/><circle class="c" cx="454.78" cy="856.88" r="8.52"/><circle class="c" cx="404.54" cy="856.88" r="8.52"/><path class="d" d="M175,298.53H896.33c13,0,20.39,11,16.39,24.48L771.59,806.11c-4,13.47-17.93,24.5-31,24.5H19c-13,0-20.4-11-16.39-24.5L144.05,323C148.06,309.55,162,298.53,175,298.53Z"/><line class="b" x1="139.94" y1="337.03" x2="908.63" y2="337.03"/><path class="b" d="M178.86,365.44H851.69c10,0,15.6,8.42,12.54,18.72L746.69,782.8C743.63,793.1,733,801.53,723,801.53H49.93c-10,0-15.6-8.43-12.53-18.73L155.18,384.16C158.25,373.86,168.9,365.44,178.86,365.44Z"/><line class="b" x1="226.13" y1="365.44" x2="98.09" y2="801.53"/><line class="b" x1="441.06" y1="365.44" x2="313.02" y2="801.53"/><line class="b" x1="655.25" y1="365.44" x2="527.21" y2="801.53"/><polygon class="e" points="832.92 489.66 123.84 489.66 142.25 427.37 851.32 427.37 832.92 489.66"/><polygon class="e" points="796.48 614.37 87.4 614.37 105.9 552.22 814.98 552.22 796.48 614.37"/><polygon class="e" points="759.7 738.69 50.43 738.69 68.83 676.43 778.06 676.43 759.7 738.69"/><circle class="e" cx="735.35" cy="317.28" r="8.52"/><circle class="e" cx="814.28" cy="317.28" r="8.52"/><circle class="e" cx="892.53" cy="317.28" r="8.52"/><circle class="f" cx="657.81" cy="298.53" r="298.53"/><path class="g" d="M657.81,35.92A262.69,262.69,0,0,1,760,540.52a262.69,262.69,0,0,1-204.44-484A261,261,0,0,1,657.81,35.92m0-16.86c-154.35,0-279.47,125.13-279.47,279.47S503.46,578,657.81,578,937.28,452.88,937.28,298.53,812.15,19.06,657.81,19.06Z"/><path class="h" d="M589.14,152.31v18.41H546.8v26.12h35.26v18.48H546.8v40.14H522.73V152.31Z"/><path class="h" d="M597.35,255.46V182h13a11,11,0,0,1,2.73.29,4.78,4.78,0,0,1,1.84.88,3.7,3.7,0,0,1,1.13,1.6,14.38,14.38,0,0,1,.68,2.4l1.2,6.87a36.07,36.07,0,0,1,9.06-9.84,18.4,18.4,0,0,1,11-3.61,12.61,12.61,0,0,1,8.07,2.41l-2.83,16.14a3.15,3.15,0,0,1-1.14,2.09,3.83,3.83,0,0,1-2.26.6,15.29,15.29,0,0,1-2.84-.32,22,22,0,0,0-4.1-.32q-8.64,0-13.59,9.2v45Z"/><path class="h" d="M687.26,180.91a37.86,37.86,0,0,1,13.35,2.27A29.11,29.11,0,0,1,711,189.76a30.1,30.1,0,0,1,6.79,10.59,38.77,38.77,0,0,1,2.45,14.19,31.19,31.19,0,0,1-.22,4,6.25,6.25,0,0,1-.78,2.47,2.92,2.92,0,0,1-1.52,1.28,7,7,0,0,1-2.44.35H673q1.06,9.21,5.59,13.35a16.66,16.66,0,0,0,11.69,4.14,21,21,0,0,0,6.58-.92,33.44,33.44,0,0,0,4.92-2.05c1.44-.76,2.76-1.44,4-2.06a8.24,8.24,0,0,1,3.78-.92,4.54,4.54,0,0,1,4,1.92l6.37,7.85a32.46,32.46,0,0,1-7.33,6.34,38,38,0,0,1-8.07,3.82,43.43,43.43,0,0,1-8.28,1.91,61.23,61.23,0,0,1-7.9.54,41.06,41.06,0,0,1-14.47-2.52A33.16,33.16,0,0,1,662,246.61a35.28,35.28,0,0,1-8-12.32A46,46,0,0,1,651,217.16a38.69,38.69,0,0,1,2.52-13.95,33.88,33.88,0,0,1,18.62-19.4A37.7,37.7,0,0,1,687.26,180.91Zm.43,15.15q-6.3,0-9.84,3.58t-4.68,10.3h27.4a19.29,19.29,0,0,0-.67-5.1,12.46,12.46,0,0,0-2.19-4.42,11.13,11.13,0,0,0-4-3.15A13.53,13.53,0,0,0,687.69,196.06Z"/><path class="h" d="M764.29,180.91a37.86,37.86,0,0,1,13.35,2.27,29,29,0,0,1,10.4,6.58,30,30,0,0,1,6.8,10.59,38.78,38.78,0,0,1,2.44,14.19,31.45,31.45,0,0,1-.21,4,6.25,6.25,0,0,1-.78,2.47,3,3,0,0,1-1.52,1.28,7,7,0,0,1-2.44.35H750q1.07,9.21,5.59,13.35a16.66,16.66,0,0,0,11.69,4.14,21,21,0,0,0,6.58-.92,33.44,33.44,0,0,0,4.92-2.05c1.44-.76,2.76-1.44,4-2.06a8.24,8.24,0,0,1,3.78-.92,4.54,4.54,0,0,1,4,1.92l6.37,7.85a32.68,32.68,0,0,1-7.33,6.34,38,38,0,0,1-8.07,3.82,43.43,43.43,0,0,1-8.28,1.91,61.23,61.23,0,0,1-7.9.54,41.16,41.16,0,0,1-14.48-2.52A33.12,33.12,0,0,1,739,246.61a35.28,35.28,0,0,1-8-12.32A46,46,0,0,1,728,217.16a38.69,38.69,0,0,1,2.52-13.95,33.88,33.88,0,0,1,18.62-19.4A37.67,37.67,0,0,1,764.29,180.91Zm.43,15.15q-6.32,0-9.85,3.58t-4.67,10.3h27.4a19.29,19.29,0,0,0-.67-5.1,12.32,12.32,0,0,0-2.2-4.42,11,11,0,0,0-4-3.15A13.53,13.53,0,0,0,764.72,196.06Z"/><path class="h" d="M551.22,341.6h-5.4a2.3,2.3,0,0,1-1.52-.47,2.85,2.85,0,0,1-.86-1.18l-4.82-12.46H515.47L510.64,340a2.75,2.75,0,0,1-.86,1.15,2.33,2.33,0,0,1-1.51.5h-5.4L523.5,290h7.09Zm-33.81-19.15h19.26l-8.1-21A39.21,39.21,0,0,1,527,296.6c-.26,1-.52,1.89-.77,2.72s-.5,1.55-.74,2.18Z"/><path class="h" d="M557.26,342.36a3.72,3.72,0,0,1-1.49,1.87,3.8,3.8,0,0,1-2,.61H551L572.67,291a3.84,3.84,0,0,1,1.33-1.76,3.47,3.47,0,0,1,2.06-.62h2.7Z"/><path class="h" d="M592.25,320.07V341.6h-6.94V290h14.58a31.9,31.9,0,0,1,8.46,1,16.16,16.16,0,0,1,5.88,2.87,11.36,11.36,0,0,1,3.44,4.51,15.21,15.21,0,0,1,1.12,5.93,14.78,14.78,0,0,1-.87,5.11,13.44,13.44,0,0,1-2.5,4.26,14.9,14.9,0,0,1-4,3.23,19.8,19.8,0,0,1-5.34,2,7.47,7.47,0,0,1,2.3,2.2l15,20.48h-6.19a3.06,3.06,0,0,1-2.81-1.47L601,321.69a4,4,0,0,0-1.33-1.24,4.83,4.83,0,0,0-2.16-.38Zm0-5.07h7.31a17.8,17.8,0,0,0,5.38-.74,10.88,10.88,0,0,0,3.89-2.09,8.6,8.6,0,0,0,2.36-3.22,10.5,10.5,0,0,0,.79-4.14q0-4.6-3-6.95t-9.05-2.34h-7.64Z"/><path class="h" d="M687.29,341.6h-5.4a2.27,2.27,0,0,1-1.51-.47,2.85,2.85,0,0,1-.86-1.18l-4.83-12.46H651.55L646.72,340a2.93,2.93,0,0,1-.86,1.15,2.33,2.33,0,0,1-1.51.5H639L659.57,290h7.09Zm-33.8-19.15h19.26l-8.1-21a39.21,39.21,0,0,1-1.55-4.86c-.26,1-.52,1.89-.77,2.72s-.5,1.55-.74,2.18Z"/><path class="h" d="M698.34,305.13v23.26a9.69,9.69,0,0,0,1.91,6.41,7.1,7.1,0,0,0,5.76,2.27,11,11,0,0,0,5.29-1.34,16.3,16.3,0,0,0,4.58-3.7v-26.9h6.4V341.6h-3.81a1.63,1.63,0,0,1-1.73-1.33l-.5-3.92a20.21,20.21,0,0,1-5.33,4.23,14.08,14.08,0,0,1-6.77,1.6,13.14,13.14,0,0,1-5.27-1A10.41,10.41,0,0,1,695,338.4a11.9,11.9,0,0,1-2.32-4.36,19.3,19.3,0,0,1-.77-5.65V305.13Z"/><path class="h" d="M758.5,341.6a1.63,1.63,0,0,1-1.73-1.33l-.57-4.43a19.23,19.23,0,0,1-5.35,4.56,13.68,13.68,0,0,1-6.89,1.71,13.21,13.21,0,0,1-5.69-1.21,11.81,11.81,0,0,1-4.36-3.55,16.9,16.9,0,0,1-2.77-5.83,29.94,29.94,0,0,1-1-8,25.13,25.13,0,0,1,1.08-7.5,18.32,18.32,0,0,1,3.11-6,14.23,14.23,0,0,1,11.58-5.47,13.11,13.11,0,0,1,5.72,1.13,13.85,13.85,0,0,1,4.25,3.19V288.57h6.41v53Zm-12.42-4.68a10.31,10.31,0,0,0,5.49-1.44,15.75,15.75,0,0,0,4.34-4.07V313.77a10.27,10.27,0,0,0-3.87-3.33,11.25,11.25,0,0,0-4.66-.95,9.21,9.21,0,0,0-7.85,3.64q-2.74,3.63-2.74,10.36a26.31,26.31,0,0,0,.62,6.11,11.6,11.6,0,0,0,1.79,4.17,7.23,7.23,0,0,0,2.92,2.4A9.85,9.85,0,0,0,746.08,336.92Z"/><path class="h" d="M781.65,293.69a4.09,4.09,0,0,1-.38,1.74,5,5,0,0,1-1,1.44,4.6,4.6,0,0,1-1.46,1,4.36,4.36,0,0,1-1.76.36,4.28,4.28,0,0,1-1.75-.36,4.8,4.8,0,0,1-2.43-2.43,4.24,4.24,0,0,1-.36-1.74,4.54,4.54,0,0,1,.36-1.79,4.64,4.64,0,0,1,1-1.47,4.75,4.75,0,0,1,1.44-1,4.28,4.28,0,0,1,1.75-.36,4.36,4.36,0,0,1,1.76.36,4.6,4.6,0,0,1,1.46,1,4.87,4.87,0,0,1,1,1.47A4.39,4.39,0,0,1,781.65,293.69Zm-1.44,11.44V341.6H773.8V305.13Z"/><path class="h" d="M802.56,342.18a8.82,8.82,0,0,1-6.64-2.41q-2.32-2.41-2.32-6.95V310.5h-4.39a1.45,1.45,0,0,1-1-.34,1.33,1.33,0,0,1-.4-1.07v-2.55l6-.76,1.47-11.27a1.35,1.35,0,0,1,.47-.88,1.47,1.47,0,0,1,1-.34H800v12.56h10.44v4.65H800v21.89a4.69,4.69,0,0,0,1.11,3.42,3.93,3.93,0,0,0,2.88,1.11,5.11,5.11,0,0,0,1.75-.27,8.1,8.1,0,0,0,1.28-.59c.36-.22.66-.42.92-.6a1.19,1.19,0,0,1,.66-.27,1.1,1.1,0,0,1,.9.62l1.87,3.06a11.94,11.94,0,0,1-4,2.43A13.76,13.76,0,0,1,802.56,342.18Z"/><path class="i" d="M471.7,401.69a1.81,1.81,0,0,1,.51.48l14.94,19.44c0-.31-.06-.62-.07-.91s0-.58,0-.85V401.58h3.06v25.79h-1.76a1.41,1.41,0,0,1-.69-.15,1.59,1.59,0,0,1-.55-.48L472.2,407.32c0,.3,0,.59.05.88s0,.55,0,.79v18.38h-3.06V401.58H471A1.54,1.54,0,0,1,471.7,401.69Z"/><path class="i" d="M503.3,408.85a9.47,9.47,0,0,1,3.61.66,7.77,7.77,0,0,1,2.73,1.89,8.44,8.44,0,0,1,1.73,3,12.68,12.68,0,0,1,0,7.77,8.31,8.31,0,0,1-1.73,2.95,7.38,7.38,0,0,1-2.73,1.88,10.2,10.2,0,0,1-7.22,0,7.42,7.42,0,0,1-2.74-1.88,8.35,8.35,0,0,1-1.75-2.95,12.68,12.68,0,0,1,0-7.77,8.48,8.48,0,0,1,1.75-3,7.81,7.81,0,0,1,2.74-1.89A9.44,9.44,0,0,1,503.3,408.85Zm0,16.27a4.67,4.67,0,0,0,4-1.81,8.37,8.37,0,0,0,1.33-5.05,8.47,8.47,0,0,0-1.33-5.08,4.67,4.67,0,0,0-4-1.81,5.68,5.68,0,0,0-2.38.46,4.61,4.61,0,0,0-1.68,1.35,6,6,0,0,0-1,2.17,11.76,11.76,0,0,0-.33,2.91,11.62,11.62,0,0,0,.33,2.9,5.87,5.87,0,0,0,1,2.15,4.49,4.49,0,0,0,1.68,1.34A5.68,5.68,0,0,0,503.3,425.12Z"/><path class="i" d="M541.57,422a.75.75,0,0,1,.52.23l1.37,1.5a11.06,11.06,0,0,1-3.85,2.86,13.13,13.13,0,0,1-5.44,1,12.68,12.68,0,0,1-5.06-1,11.07,11.07,0,0,1-3.87-2.7,12.09,12.09,0,0,1-2.48-4.16,15.52,15.52,0,0,1-.88-5.35,14.61,14.61,0,0,1,.94-5.34,12.21,12.21,0,0,1,2.66-4.18,11.89,11.89,0,0,1,4.09-2.71,14,14,0,0,1,5.27-1,12.36,12.36,0,0,1,4.9.88,12.52,12.52,0,0,1,3.66,2.39l-1.13,1.6a1,1,0,0,1-.29.3.78.78,0,0,1-.47.12.93.93,0,0,1-.49-.17l-.62-.42c-.24-.17-.52-.35-.85-.54a6.17,6.17,0,0,0-1.15-.54,9.75,9.75,0,0,0-1.55-.43,11.08,11.08,0,0,0-2-.17A9.88,9.88,0,0,0,531,405a8.5,8.5,0,0,0-3,2,9.09,9.09,0,0,0-1.94,3.2,12.27,12.27,0,0,0-.69,4.23,12.47,12.47,0,0,0,.69,4.3A9.46,9.46,0,0,0,528,422a8.08,8.08,0,0,0,2.84,2,9.17,9.17,0,0,0,3.53.68,14.53,14.53,0,0,0,2.07-.13,8.14,8.14,0,0,0,1.7-.43,6.8,6.8,0,0,0,1.45-.73,10.37,10.37,0,0,0,1.36-1.05A1,1,0,0,1,541.57,422Z"/><path class="i" d="M554.92,408.85a9.4,9.4,0,0,1,3.61.66,7.72,7.72,0,0,1,2.74,1.89,8.6,8.6,0,0,1,1.73,3,12.88,12.88,0,0,1,0,7.77,8.46,8.46,0,0,1-1.73,2.95,7.34,7.34,0,0,1-2.74,1.88,10.2,10.2,0,0,1-7.22,0,7.5,7.5,0,0,1-2.74-1.88,8.35,8.35,0,0,1-1.75-2.95,12.68,12.68,0,0,1,0-7.77,8.48,8.48,0,0,1,1.75-3,7.91,7.91,0,0,1,2.74-1.89A9.47,9.47,0,0,1,554.92,408.85Zm0,16.27a4.69,4.69,0,0,0,4-1.81,8.44,8.44,0,0,0,1.33-5.05,8.54,8.54,0,0,0-1.33-5.08,4.69,4.69,0,0,0-4-1.81,5.6,5.6,0,0,0-2.37.46,4.64,4.64,0,0,0-1.69,1.35,6,6,0,0,0-1,2.17,11.29,11.29,0,0,0-.34,2.91,11.15,11.15,0,0,0,.34,2.9,5.86,5.86,0,0,0,1,2.15,4.52,4.52,0,0,0,1.69,1.34A5.6,5.6,0,0,0,554.92,425.12Z"/><path class="i" d="M578,412.14a.71.71,0,0,1-.67.4,1.28,1.28,0,0,1-.61-.2c-.23-.13-.51-.28-.84-.44a8.46,8.46,0,0,0-1.17-.45,5.59,5.59,0,0,0-1.62-.21,4.72,4.72,0,0,0-1.46.21,3.63,3.63,0,0,0-1.11.57,2.39,2.39,0,0,0-.7.83,2.3,2.3,0,0,0-.24,1,1.75,1.75,0,0,0,.4,1.17,3.63,3.63,0,0,0,1.07.81,9.14,9.14,0,0,0,1.51.6c.57.17,1.15.36,1.74.56s1.17.42,1.74.65a6.63,6.63,0,0,1,1.51.9,4.33,4.33,0,0,1,1.07,1.33,4,4,0,0,1,.41,1.88,5.94,5.94,0,0,1-.45,2.33,5.09,5.09,0,0,1-1.34,1.85,6.16,6.16,0,0,1-2.16,1.24,8.84,8.84,0,0,1-3,.45,9.26,9.26,0,0,1-3.45-.62,8.76,8.76,0,0,1-2.63-1.6l.75-1.22a1,1,0,0,1,.35-.36,1,1,0,0,1,.52-.13,1.21,1.21,0,0,1,.68.26c.24.16.53.35.87.55a6.66,6.66,0,0,0,1.25.56,5.55,5.55,0,0,0,1.82.25,5.06,5.06,0,0,0,1.64-.24,3.31,3.31,0,0,0,1.17-.66,2.55,2.55,0,0,0,.69-.95,3,3,0,0,0,.23-1.15,1.9,1.9,0,0,0-.41-1.25,3.3,3.3,0,0,0-1.07-.85,8.59,8.59,0,0,0-1.52-.61l-1.74-.55a17.49,17.49,0,0,1-1.75-.66,5.93,5.93,0,0,1-1.52-.92,4.42,4.42,0,0,1-1.07-1.38,4.47,4.47,0,0,1-.41-2,4.82,4.82,0,0,1,.44-2,4.77,4.77,0,0,1,1.26-1.69,6.17,6.17,0,0,1,2-1.16,8.06,8.06,0,0,1,2.75-.43,8.86,8.86,0,0,1,3.23.56,7.69,7.69,0,0,1,2.48,1.56Z"/><path class="i" d="M588.71,427.66a4.37,4.37,0,0,1-3.32-1.21,4.77,4.77,0,0,1-1.16-3.47V411.82H582a.72.72,0,0,1-.48-.17.65.65,0,0,1-.2-.53v-1.28l3-.38.74-5.63a.69.69,0,0,1,.24-.45.76.76,0,0,1,.5-.17h1.62v6.28h5.22v2.33h-5.22v10.94a2.33,2.33,0,0,0,.56,1.71,2,2,0,0,0,1.44.56,2.52,2.52,0,0,0,.87-.14,4.32,4.32,0,0,0,.64-.29l.46-.3a.64.64,0,0,1,.33-.14.56.56,0,0,1,.45.31l.94,1.53a6,6,0,0,1-2,1.22A6.85,6.85,0,0,1,588.71,427.66Z"/><path class="i" d="M604.67,416.66a6.42,6.42,0,0,1,.54-2.61,6.71,6.71,0,0,1,1.43-2.13,6.59,6.59,0,0,1,2.11-1.44,6.27,6.27,0,0,1,2.58-.53,6.35,6.35,0,0,1,2.61.53,6.72,6.72,0,0,1,2.14,1.44,6.9,6.9,0,0,1,1.44,2.13,6.58,6.58,0,0,1,.53,2.61,6.5,6.5,0,0,1-.53,2.6,6.81,6.81,0,0,1-1.44,2.11,7.07,7.07,0,0,1-2.14,1.44,6.51,6.51,0,0,1-2.61.53,6.44,6.44,0,0,1-2.58-.53,6.93,6.93,0,0,1-2.11-1.44,6.62,6.62,0,0,1-1.43-2.11A6.34,6.34,0,0,1,604.67,416.66Z"/><path class="i" d="M634.38,401.69a2,2,0,0,1,.52.48l14.94,19.44c0-.31-.06-.62-.08-.91s0-.58,0-.85V401.58h3.06v25.79H651a1.44,1.44,0,0,1-.69-.15,1.59,1.59,0,0,1-.55-.48l-14.92-19.42c0,.3,0,.59,0,.88s0,.55,0,.79v18.38h-3.06V401.58h1.8A1.54,1.54,0,0,1,634.38,401.69Z"/><path class="i" d="M666,408.85a9.44,9.44,0,0,1,3.61.66,7.81,7.81,0,0,1,2.74,1.89,8.42,8.42,0,0,1,1.72,3,12.68,12.68,0,0,1,0,7.77,8.29,8.29,0,0,1-1.72,2.95,7.42,7.42,0,0,1-2.74,1.88,10.2,10.2,0,0,1-7.22,0,7.42,7.42,0,0,1-2.74-1.88,8.35,8.35,0,0,1-1.75-2.95,12.68,12.68,0,0,1,0-7.77,8.48,8.48,0,0,1,1.75-3,7.81,7.81,0,0,1,2.74-1.89A9.47,9.47,0,0,1,666,408.85Zm0,16.27a4.66,4.66,0,0,0,4-1.81,8.37,8.37,0,0,0,1.34-5.05,8.47,8.47,0,0,0-1.34-5.08,4.66,4.66,0,0,0-4-1.81,5.6,5.6,0,0,0-2.37.46,4.56,4.56,0,0,0-1.69,1.35,6.22,6.22,0,0,0-1,2.17,11.76,11.76,0,0,0-.33,2.91,11.62,11.62,0,0,0,.33,2.9,6,6,0,0,0,1,2.15,4.44,4.44,0,0,0,1.69,1.34A5.6,5.6,0,0,0,666,425.12Z"/><path class="i" d="M710,414.48a14.93,14.93,0,0,1-.92,5.32,12.35,12.35,0,0,1-2.59,4.17,11.78,11.78,0,0,1-4,2.71,14.48,14.48,0,0,1-10.37,0,11.84,11.84,0,0,1-4-2.71,12.35,12.35,0,0,1-2.59-4.17,15.84,15.84,0,0,1,0-10.64A12.35,12.35,0,0,1,688.1,405a11.75,11.75,0,0,1,4-2.73,14.34,14.34,0,0,1,10.37,0,11.69,11.69,0,0,1,4,2.73,12.35,12.35,0,0,1,2.59,4.17A15,15,0,0,1,710,414.48Zm-3.58,0a13.1,13.1,0,0,0-.65-4.26A9,9,0,0,0,704,407a8,8,0,0,0-2.88-2,10.5,10.5,0,0,0-7.54,0,8.09,8.09,0,0,0-2.89,2,8.82,8.82,0,0,0-1.84,3.2,14.28,14.28,0,0,0,0,8.52,8.9,8.9,0,0,0,1.84,3.18,7.94,7.94,0,0,0,2.89,2,10.5,10.5,0,0,0,7.54,0,7.82,7.82,0,0,0,2.88-2,9.05,9.05,0,0,0,1.84-3.18A13.14,13.14,0,0,0,706.45,414.48Z"/><path class="i" d="M714.4,427.37V400.85h3.22v10.91a9.5,9.5,0,0,1,2.6-2.11,6.84,6.84,0,0,1,3.36-.8,6.62,6.62,0,0,1,2.86.59,5.89,5.89,0,0,1,2.18,1.77,8.71,8.71,0,0,1,1.39,2.92,15.1,15.1,0,0,1,.48,4,12.59,12.59,0,0,1-.54,3.75,9.07,9.07,0,0,1-1.55,3,7.22,7.22,0,0,1-5.79,2.73,6.16,6.16,0,0,1-3-.68,6.82,6.82,0,0,1-2.15-1.91l-.16,1.65a.77.77,0,0,1-.83.69Zm8.14-16a5.17,5.17,0,0,0-2.75.72,8,8,0,0,0-2.17,2V423a5,5,0,0,0,1.92,1.67,5.58,5.58,0,0,0,2.35.49,4.62,4.62,0,0,0,3.92-1.82,8.5,8.5,0,0,0,1.37-5.18,12.93,12.93,0,0,0-.31-3.06A6,6,0,0,0,726,413a3.5,3.5,0,0,0-1.46-1.2A4.89,4.89,0,0,0,722.54,411.4Z"/><path class="i" d="M738,400.85v26.52h-3.2V400.85Z"/><path class="i" d="M747.92,403.41a2.13,2.13,0,0,1-.19.87,2.61,2.61,0,0,1-.51.72,2.31,2.31,0,0,1-.73.5,2.16,2.16,0,0,1-.88.18,2.12,2.12,0,0,1-.87-.18,2.47,2.47,0,0,1-1.22-1.22,2.29,2.29,0,0,1-.18-.87,2.44,2.44,0,0,1,.18-.89,2.34,2.34,0,0,1,1.22-1.23,2.12,2.12,0,0,1,.87-.18,2.16,2.16,0,0,1,.88.18,2.29,2.29,0,0,1,.73.49,2.57,2.57,0,0,1,.51.74A2.26,2.26,0,0,1,747.92,403.41Zm-.72,5.73v18.23H744V409.14Z"/><path class="i" d="M759,408.83a9.25,9.25,0,0,1,2.22.26,7,7,0,0,1,1.88.76H768V411c0,.4-.25.65-.76.76l-2.07.29a5.85,5.85,0,0,1,.1,5,5.4,5.4,0,0,1-1.42,1.86,6.27,6.27,0,0,1-2.16,1.19,8.56,8.56,0,0,1-2.74.41,9.3,9.3,0,0,1-2.41-.3,3,3,0,0,0-.88.8,1.42,1.42,0,0,0-.29.83,1.14,1.14,0,0,0,.52,1,3.59,3.59,0,0,0,1.38.49,11.57,11.57,0,0,0,2,.15h2.25a12.87,12.87,0,0,1,2.24.2,6.85,6.85,0,0,1,2,.66,3.62,3.62,0,0,1,1.38,1.25,3.75,3.75,0,0,1,.53,2.08,4.89,4.89,0,0,1-.59,2.3,6.26,6.26,0,0,1-1.68,2,8.9,8.9,0,0,1-2.68,1.38,11.4,11.4,0,0,1-3.59.52,13.59,13.59,0,0,1-3.5-.4,8.19,8.19,0,0,1-2.49-1.06,4.59,4.59,0,0,1-1.48-1.54,3.65,3.65,0,0,1-.5-1.83,3.32,3.32,0,0,1,.86-2.3,5.82,5.82,0,0,1,2.35-1.5,3.26,3.26,0,0,1-1.24-1,2.63,2.63,0,0,1-.46-1.61,2.42,2.42,0,0,1,.15-.82,3.09,3.09,0,0,1,.44-.84,4.72,4.72,0,0,1,1.73-1.45,5.67,5.67,0,0,1-2.11-2,6,6,0,0,1-.25-5.34,5.34,5.34,0,0,1,1.43-1.86,6.57,6.57,0,0,1,2.19-1.18A9.06,9.06,0,0,1,759,408.83Zm5.68,19.46a1.65,1.65,0,0,0-.37-1.12,2.6,2.6,0,0,0-1-.65,8,8,0,0,0-1.49-.34,14.58,14.58,0,0,0-1.79-.11h-1.9a7.08,7.08,0,0,1-1.86-.24,5.13,5.13,0,0,0-1.66,1.19,2.4,2.4,0,0,0-.64,1.68,2.2,2.2,0,0,0,.31,1.14,2.62,2.62,0,0,0,1,.92,5.5,5.5,0,0,0,1.63.61,10.36,10.36,0,0,0,2.31.23,10.21,10.21,0,0,0,2.32-.24,5.91,5.91,0,0,0,1.74-.68,3.33,3.33,0,0,0,1.09-1.05A2.48,2.48,0,0,0,764.67,428.29ZM759,418.46a5.09,5.09,0,0,0,1.72-.27,3.5,3.5,0,0,0,1.25-.76,3.14,3.14,0,0,0,.75-1.16,4.14,4.14,0,0,0,.25-1.48,3.54,3.54,0,0,0-1-2.67,4.91,4.91,0,0,0-5.91,0,3.58,3.58,0,0,0-1,2.67,3.94,3.94,0,0,0,.26,1.48,3.16,3.16,0,0,0,.76,1.16,3.45,3.45,0,0,0,1.24.76A5,5,0,0,0,759,418.46Z"/><path class="i" d="M784.64,427.37h-1.43a1.61,1.61,0,0,1-.75-.15.77.77,0,0,1-.38-.61l-.36-1.69c-.48.43-1,.82-1.4,1.16a8.9,8.9,0,0,1-1.44.87,7.88,7.88,0,0,1-1.62.53,9.12,9.12,0,0,1-1.89.18,6.38,6.38,0,0,1-2-.3,4.58,4.58,0,0,1-1.61-.89,4.31,4.31,0,0,1-1.09-1.51,5.3,5.3,0,0,1-.41-2.16,4,4,0,0,1,.6-2.09,5.18,5.18,0,0,1,1.91-1.78,12.67,12.67,0,0,1,3.47-1.27,23.62,23.62,0,0,1,5.24-.5v-1.43a5,5,0,0,0-.91-3.23,3.31,3.31,0,0,0-2.69-1.1,5.73,5.73,0,0,0-2,.3,7.39,7.39,0,0,0-1.38.67c-.39.24-.73.46-1,.66a1.44,1.44,0,0,1-.84.3,1,1,0,0,1-.56-.17,1.41,1.41,0,0,1-.39-.42l-.58-1a10.53,10.53,0,0,1,3.26-2.18,10.1,10.1,0,0,1,3.87-.72,7,7,0,0,1,2.72.5,5.66,5.66,0,0,1,2,1.41,5.88,5.88,0,0,1,1.22,2.18,8.94,8.94,0,0,1,.42,2.8Zm-8.32-2a6.81,6.81,0,0,0,1.55-.17,6.3,6.3,0,0,0,1.32-.49,7.24,7.24,0,0,0,1.19-.76,10.59,10.59,0,0,0,1.11-1V419.2a21.34,21.34,0,0,0-3.77.28,10.33,10.33,0,0,0-2.52.73,3.52,3.52,0,0,0-1.41,1.07,2.34,2.34,0,0,0-.44,1.38,3.12,3.12,0,0,0,.23,1.24,2.34,2.34,0,0,0,1.57,1.35A4,4,0,0,0,776.32,425.41Z"/><path class="i" d="M795,427.66a4.37,4.37,0,0,1-3.32-1.21,4.82,4.82,0,0,1-1.16-3.47V411.82h-2.2a.72.72,0,0,1-.48-.17.68.68,0,0,1-.2-.53v-1.28l3-.38.74-5.63a.68.68,0,0,1,.23-.45.76.76,0,0,1,.5-.17h1.62v6.28H799v2.33h-5.22v10.94a2.33,2.33,0,0,0,.56,1.71,2,2,0,0,0,1.44.56,2.48,2.48,0,0,0,.87-.14,4.32,4.32,0,0,0,.64-.29c.18-.11.34-.21.46-.3a.63.63,0,0,1,.34-.14.56.56,0,0,1,.44.31l.94,1.53a6,6,0,0,1-2,1.22A6.85,6.85,0,0,1,795,427.66Z"/><path class="i" d="M807.21,403.41a2.13,2.13,0,0,1-.19.87,2.61,2.61,0,0,1-.51.72,2.31,2.31,0,0,1-.73.5,2.16,2.16,0,0,1-.88.18,2.12,2.12,0,0,1-.87-.18,2.39,2.39,0,0,1-.72-.5,2.19,2.19,0,0,1-.49-.72,2,2,0,0,1-.19-.87,2.09,2.09,0,0,1,.19-.89,2.17,2.17,0,0,1,.49-.74,2.36,2.36,0,0,1,.72-.49,2.12,2.12,0,0,1,.87-.18,2.16,2.16,0,0,1,.88.18,2.29,2.29,0,0,1,.73.49,2.57,2.57,0,0,1,.51.74A2.26,2.26,0,0,1,807.21,403.41Zm-.72,5.73v18.23h-3.21V409.14Z"/><path class="i" d="M819.52,408.85a9.47,9.47,0,0,1,3.61.66,7.77,7.77,0,0,1,2.73,1.89,8.44,8.44,0,0,1,1.73,3,12.88,12.88,0,0,1,0,7.77,8.31,8.31,0,0,1-1.73,2.95,7.38,7.38,0,0,1-2.73,1.88,10.2,10.2,0,0,1-7.22,0,7.45,7.45,0,0,1-2.75-1.88,8.48,8.48,0,0,1-1.74-2.95,12.68,12.68,0,0,1,0-7.77,8.62,8.62,0,0,1,1.74-3,7.85,7.85,0,0,1,2.75-1.89A9.44,9.44,0,0,1,819.52,408.85Zm0,16.27a4.67,4.67,0,0,0,4-1.81,8.37,8.37,0,0,0,1.33-5.05,8.47,8.47,0,0,0-1.33-5.08,4.67,4.67,0,0,0-4-1.81,5.65,5.65,0,0,0-2.38.46,4.61,4.61,0,0,0-1.68,1.35,6,6,0,0,0-1,2.17,11.76,11.76,0,0,0-.33,2.91,11.62,11.62,0,0,0,.33,2.9,5.87,5.87,0,0,0,1,2.15,4.49,4.49,0,0,0,1.68,1.34A5.64,5.64,0,0,0,819.52,425.12Z"/><path class="i" d="M832.16,427.37V409.14h1.9a.82.82,0,0,1,.87.66l.25,2a10.44,10.44,0,0,1,2.65-2.12,6.92,6.92,0,0,1,3.4-.81,6.56,6.56,0,0,1,2.63.49,5,5,0,0,1,1.91,1.41,6.07,6.07,0,0,1,1.16,2.18,9.4,9.4,0,0,1,.4,2.83v11.61h-3.21V415.76a4.89,4.89,0,0,0-.94-3.21,3.51,3.51,0,0,0-2.89-1.15,5.32,5.32,0,0,0-2.65.69,8.4,8.4,0,0,0-2.28,1.85v13.43Z"/></svg>